<svg xmlns="http://www.w3.org/2000/svg" viewBox="0 0 3312 3312" shape-rendering="geometricPrecision" text-rendering="geometricPrecision" image-rendering="optimizeQuality" fill-rule="evenodd" clip-rule="evenodd"><path d="M1656 0c457 0 871 185 1171 485s485 714 485 1171-185 871-485 1171-714 485-1171 485-871-185-1171-485S0 2113 0 1656 185 785 485 485 1199 0 1656 0zM931 1811c-35-32-38-87-6-122s87-38 122-6l362 328 850-890c33-35 88-36 122-3 35 33 36 88 3 122l-908 951c-32 34-86 36-121 5l-425-385zM2704 608c-268-268-639-434-1048-434S876 340 608 608s-434 639-434 1048 166 780 434 1048 639 434 1048 434 780-166 1048-434 434-639 434-1048-166-780-434-1048z" fill-rule="nonzero"/></svg>